# xmcd
#
# Track frame offsets: 
#        150
#        16619
#        33662
#        48018
#        62845
#        77849
#        90628
#        111736
#        123246
#        137668
#        151217
#        173547
#        186901
#        212752
#        228279
#        237896
#        250893
#        261590
#        274856
#        287538
#        298165
#        307962
#        319056
#
# Disc length: 4408 seconds
#
# Revision: 2
# Processed by: cddbd v1.5.1PL0 Copyright (c) Steve Scherf et al.
# Submitted via: ExactAudioCopy v0.95b2
#
DISCID=46113617
DTITLE=Various Artist - Soul Patrol 5
DYEAR=1900
DGENRE=Soul
TTITLE0=Independents/Baby I've Been Missing You
TTITLE1=Benny Gordon/Stealing In The Name Of The Lord
TTITLE2=Parliaments/(I Wanna ) Testify
TTITLE3=Presidents/5-10-15-20 (Years of Love)
TTITLE4=Percy Sledge/She's Too Pretty To Cry
TTITLE5=Ruby Andrews/Casanova (Your Playing Days Are Over)
TTITLE6=Independents/Let This Be A Lesson To You
TTITLE7=Maxine BrownAll In My Mind
TTITLE8=Joe TexHold What You've Got
TTITLE9=J. J. BarnesBaby Please Come Back Home
TTITLE10=Bobby Marchan/There Is Something On Your Mind (Pt. 1 and 2)
TTITLE11=Buster Brown/Fannie Mae
TTITLE12=Don Gardner and Dee Dee Ford/I Need Your Loving (Extended Versi
TTITLE12=on)
TTITLE13=Little Esther Phillips/Release Me
TTITLE14=Gena Allison/You Can Make It If You Try
TTITLE15=Sam and Bill/For Your Love
TTITLE16=Fred Hughes/Oo Wee Baby, I Love You
TTITLE17=Betty Harris/Nearer To You
TTITLE18=King Curtis and The Noble Knights/Soul Twist
TTITLE19=Ruby Winters and Johnny Thunder/Make Love To Me
TTITLE20=Roscoe Gordon/Just A Little Bit
TTITLE21=Timmy Shaw/Gonna Send You Back To Georgia
TTITLE22=Charlie and Inez Foxx/(1 2 3 4 5 6 7) Count The Days
EXTD=
EXTT0=The Independents
EXTT1=Benny Gordon
EXTT2=The Parliaments
EXTT3=The Presidents
EXTT4=Percy Sledge
EXTT5=Ruby Andrews
EXTT6=The Independents
EXTT7=Maxine Brown
EXTT8=Joe Tex
EXTT9=J.J. Barnes
EXTT10=Bobby Marchan
EXTT11=Buster Brown
EXTT12=Don Gardner and Dee Dee Ford
EXTT13=Little Esther Phillips
EXTT14=Gene Allison
EXTT15=Sam And Bill
EXTT16=Fred Hughes
EXTT17=Betty Harris
EXTT18=King Curtins and The Noble Knights
EXTT19=Ruby Winters And Johnny Thunder
EXTT20=Rosco Gordon
EXTT21=Timmy Shaw
EXTT22=Charlie and Inez Foxx
PLAYORDER=
